<svg width="24" height="27" viewBox="0 0 24 27" fill="none" xmlns="http://www.w3.org/2000/svg">
<path fill-rule="evenodd" clip-rule="evenodd" d="M20.003 4.1039C17.3264 1.36641 12.9287 1.36641 10.2521 4.1039L1.75365 12.7957C1.35819 13.2001 0.710485 13.2067 0.306966 12.8103C-0.0965539 12.4139 -0.103086 11.7647 0.292374 11.3603L8.79079 2.66848C12.2696 -0.889493 17.9854 -0.889493 21.4643 2.66848C24.8452 6.12638 24.8452 11.6599 21.4643 15.1178L11.8169 24.9847C9.18956 27.6718 4.87277 27.6718 2.24545 24.9847C-0.307976 22.3731 -0.307979 18.1941 2.24545 15.5825L12.0095 5.59633C13.852 3.71191 16.8793 3.71191 18.7218 5.59633C20.5125 7.42776 20.5125 10.3585 18.7218 12.1899L9.97823 21.1325C9.58277 21.5369 8.93507 21.5435 8.53155 21.1471C8.12803 20.7507 8.1215 20.1015 8.51696 19.697L17.2605 10.7545C18.2716 9.72048 18.2716 8.06579 17.2605 7.03176C16.2203 5.96781 14.511 5.96781 13.4708 7.03176L3.70672 17.018C1.93296 18.8321 1.93296 21.7351 3.70672 23.5492C5.53182 25.4159 8.53052 25.4159 10.3556 23.5493L20.003 13.6824C22.6043 11.0219 22.6043 6.76441 20.003 4.1039Z" fill="#FC8D33"/>
</svg>
